<mxfile host="65bd71144e">
    <diagram id="WfFcdCd9OsjKnm_TBlE2" name="Page-1">
        <mxGraphModel dx="1056" dy="1007" grid="0" gridSize="10" guides="1" tooltips="1" connect="1" arrows="1" fold="1" page="1" pageScale="1" pageWidth="850" pageHeight="1100" background="#ffffff" math="0" shadow="0">
            <root>
                <mxCell id="0"/>
                <mxCell id="1" parent="0"/>
                <mxCell id="19" style="edgeStyle=none;html=1;entryX=0;entryY=0.5;entryDx=0;entryDy=0;startArrow=classic;startFill=1;fontColor=#000000;labelBackgroundColor=none;strokeColor=#000000;" parent="1" source="11" target="4" edge="1">
                    <mxGeometry relative="1" as="geometry"/>
                </mxCell>
                <mxCell id="27" value="Port 8080" style="edgeLabel;html=1;align=center;verticalAlign=middle;resizable=0;points=[];fontSize=14;labelBackgroundColor=none;fontColor=#000000;" vertex="1" connectable="0" parent="19">
                    <mxGeometry x="-0.0863" y="1" relative="1" as="geometry">
                        <mxPoint x="9" y="12" as="offset"/>
                    </mxGeometry>
                </mxCell>
                <mxCell id="21" style="edgeStyle=none;html=1;exitX=1;exitY=0.75;exitDx=0;exitDy=0;entryX=0;entryY=0.5;entryDx=0;entryDy=0;startArrow=classic;startFill=1;fontColor=#000000;labelBackgroundColor=none;strokeColor=#000000;" parent="1" source="11" target="17" edge="1">
                    <mxGeometry relative="1" as="geometry"/>
                </mxCell>
                <mxCell id="28" value="Port 8080" style="edgeLabel;html=1;align=center;verticalAlign=middle;resizable=0;points=[];fontSize=14;fontColor=#000000;labelBackgroundColor=none;" vertex="1" connectable="0" parent="21">
                    <mxGeometry x="-0.0178" y="2" relative="1" as="geometry">
                        <mxPoint y="-9" as="offset"/>
                    </mxGeometry>
                </mxCell>
                <mxCell id="11" value="&lt;font style=&quot;font-size: 14px&quot;&gt;&lt;br&gt;&lt;br&gt;&lt;br&gt;&lt;br&gt;&lt;br&gt;&lt;br&gt;&lt;br&gt;&lt;br&gt;&lt;br&gt;&lt;br&gt;&lt;br&gt;&lt;br&gt;&lt;br&gt;&lt;br&gt;&lt;br&gt;&lt;br&gt;&lt;br&gt;&lt;br&gt;&lt;br&gt;&lt;br&gt;&lt;br&gt;&lt;br&gt;&lt;br&gt;&lt;b&gt;AWS ECS&lt;br&gt;&lt;/b&gt;Managed container hosting with Amazon&amp;nbsp;&lt;br&gt;Elastic Container Service&lt;br&gt;with seamless autoscalling through&lt;br&gt;AWS Fargate&lt;/font&gt;" style="rounded=0;whiteSpace=wrap;html=1;fontColor=#000000;labelBackgroundColor=none;fillColor=none;strokeColor=#000000;" parent="1" vertex="1">
                    <mxGeometry x="104" y="88" width="387" height="550" as="geometry"/>
                </mxCell>
                <mxCell id="14" style="edgeStyle=none;html=1;exitX=0.5;exitY=1;exitDx=0;exitDy=0;startArrow=classic;startFill=1;fontColor=#000000;labelBackgroundColor=none;strokeColor=#000000;" parent="1" source="5" target="7" edge="1">
                    <mxGeometry relative="1" as="geometry"/>
                </mxCell>
                <mxCell id="15" value="&lt;font style=&quot;font-size: 13px&quot;&gt;Connected through Docker Compose&lt;/font&gt;" style="edgeLabel;html=1;align=center;verticalAlign=middle;resizable=0;points=[];fontColor=#000000;labelBackgroundColor=none;" parent="14" vertex="1" connectable="0">
                    <mxGeometry y="3" relative="1" as="geometry">
                        <mxPoint as="offset"/>
                    </mxGeometry>
                </mxCell>
                <mxCell id="5" value="&lt;br&gt;&lt;br&gt;&lt;br&gt;&lt;br&gt;&lt;br&gt;&lt;br&gt;&lt;br&gt;&lt;br&gt;&lt;br&gt;&lt;font style=&quot;font-size: 14px&quot;&gt;Docker Container&lt;/font&gt;" style="rounded=0;whiteSpace=wrap;html=1;fontColor=#000000;labelBackgroundColor=none;fillColor=none;strokeColor=#000000;" parent="1" vertex="1">
                    <mxGeometry x="135" y="120" width="317" height="150" as="geometry"/>
                </mxCell>
                <mxCell id="3" value="&lt;font style=&quot;font-size: 14px&quot;&gt;&lt;b&gt;Auth&lt;br&gt;&lt;/b&gt;Spring boot microservice for authentication and authorization based on JWT&lt;/font&gt;" style="rounded=0;whiteSpace=wrap;html=1;fontColor=#000000;labelBackgroundColor=none;fillColor=none;strokeColor=#000000;" parent="1" vertex="1">
                    <mxGeometry x="200" y="140" width="190" height="100" as="geometry"/>
                </mxCell>
                <mxCell id="4" value="&lt;font style=&quot;font-size: 14px&quot;&gt;Application 1&lt;/font&gt;" style="rounded=0;whiteSpace=wrap;html=1;fontColor=#000000;labelBackgroundColor=none;fillColor=none;strokeColor=#000000;" parent="1" vertex="1">
                    <mxGeometry x="600" y="140" width="190" height="140" as="geometry"/>
                </mxCell>
                <mxCell id="7" value="&lt;br&gt;&lt;br&gt;&lt;br&gt;&lt;br&gt;&lt;br&gt;&lt;br&gt;&lt;span&gt;Docker Container&lt;/span&gt;" style="rounded=0;whiteSpace=wrap;html=1;fontColor=#000000;labelBackgroundColor=none;fillColor=none;strokeColor=#000000;" parent="1" vertex="1">
                    <mxGeometry x="139" y="352" width="313" height="110" as="geometry"/>
                </mxCell>
                <mxCell id="8" value="&lt;font style=&quot;font-size: 14px&quot;&gt;&lt;b&gt;Postgres DB&lt;br&gt;&lt;/b&gt;Persistence of user information&lt;/font&gt;" style="rounded=0;whiteSpace=wrap;html=1;fontColor=#000000;labelBackgroundColor=none;fillColor=none;strokeColor=#000000;" parent="1" vertex="1">
                    <mxGeometry x="200" y="370" width="190" height="60" as="geometry"/>
                </mxCell>
                <mxCell id="17" value="&lt;font style=&quot;font-size: 14px&quot;&gt;Application N&lt;/font&gt;" style="rounded=0;whiteSpace=wrap;html=1;fontColor=#000000;labelBackgroundColor=none;fillColor=none;strokeColor=#000000;" parent="1" vertex="1">
                    <mxGeometry x="600" y="462" width="190" height="140" as="geometry"/>
                </mxCell>
                <mxCell id="22" value="&lt;font style=&quot;font-size: 14px&quot;&gt;Local Development Environment&lt;/font&gt;" style="verticalLabelPosition=bottom;html=1;verticalAlign=top;align=center;strokeColor=none;fillColor=#00BEF2;shape=mxgraph.azure.laptop;pointerEvents=1;fontColor=#000000;labelBackgroundColor=none;" parent="1" vertex="1">
                    <mxGeometry x="272.5" y="733" width="50" height="30" as="geometry"/>
                </mxCell>
                <mxCell id="24" value="" style="endArrow=classic;startArrow=classic;html=1;entryX=0.5;entryY=0;entryDx=0;entryDy=0;entryPerimeter=0;exitX=0.5;exitY=1;exitDx=0;exitDy=0;fontColor=#000000;labelBackgroundColor=none;strokeColor=#000000;" parent="1" source="11" target="22" edge="1">
                    <mxGeometry width="50" height="50" relative="1" as="geometry">
                        <mxPoint x="400" y="560" as="sourcePoint"/>
                        <mxPoint x="450" y="510" as="targetPoint"/>
                    </mxGeometry>
                </mxCell>
                <mxCell id="25" value="&lt;font style=&quot;font-size: 13px&quot;&gt;Push containers through AWS/Docker CLI&lt;/font&gt;" style="edgeLabel;html=1;align=center;verticalAlign=middle;resizable=0;points=[];fontColor=#000000;labelBackgroundColor=none;" parent="24" vertex="1" connectable="0">
                    <mxGeometry x="-0.1467" y="-2" relative="1" as="geometry">
                        <mxPoint y="26" as="offset"/>
                    </mxGeometry>
                </mxCell>
                <mxCell id="29" value="" style="shape=image;verticalLabelPosition=bottom;labelBackgroundColor=#ffffff;verticalAlign=top;aspect=fixed;imageAspect=0;image=data:image/png,iVBORw0KGgoAAAANSUhEUgAAAFUAAAA/CAYAAACRmoRmAAATNklEQVR4Ae1baXRVRbbun+/98L3X9mtBRSCAjGEOJCFAGATCoDSgoKLic0DEVlAZBBkFZFBkBhmizMikIApKi4BMQlSQBkUINgIJhEFyh9zc5A7fW98+Z597chLCDXLt5VqptSpVp4Zdu77aU9WFP6E83XIE/nTLKZYTRDmoMRCCclDLQY0BAjEgWS6p5aDGAIEYkCyX1HJQY4BADEiWS+otADUcDgsVlszloJaDegsQ+B1IlElSVby1DIVCCAaDCASYA0Uy23WcveSe+M25zKxrm9b1W0sd6xwvE016Orc02uzT/oDwXZxnXUPHsrxR0jGcm52dHb362xchYMzRJAW3tLHKlI6xf9vr7Ld/a91ZKh1nyXHR8B0MGgeu6yl9Jz39JphMFKwTJ05EB6qdqL1++cpV7PxqP5atXIdJU2dh7MS3MXHqTCxdsRa79xxAXp5PFrOfPhtcbjfOns/GufPZKCgolDGka6dt/750+QrOnssCSyZ7n/EdAZtrnc+6IONzc13WeN04G0jns+07MWdBuvD8xpvvYMnS1di+Yzeysi/KHIPujaXUPo4HdurUqehA1YkKzpe792HAS8PRNCUNlWs1w901muCu6pF8Z7XGuLtGU6S0646VH2wUJrmgSslTA15BtTpJqN2oNbr3fgoej9dSSwWMJoX1FavX4976KWjQvL2UK9dskHZKhY5lSd6Yn3txGGo2aInq9ZLxyJMDrbVZ4SFPnDoLjZI6CM93k+dqjSWzXrlmM1nn6edfxYmfMoV+0GaihFgJf7g+U5lA5STdxCfbvkCFqg1xz70JqFK7uZR3VW8MMqW5Wr1k1GvaFnF1kvCXSvUwY85CWbSwsFAYfW30m7ijSgPUbdIGd1Sujy937ZF+AsmkILHeo89TqBjXCHWbpKJiXEP0ePhpqz9sblgP6/TPZ1CtbhJqNWglPA4eOkbosd/t9uDBvv1x+911BXSOoyBwH/fUTLAEo0qt5ritQi08P+g1a66CJg0l/NH+MoFKCSAgTLPnLcF//DkOVeskIrnN/Xhm4KuYNG0WFixailnzlmD0G9OQ1r0vKtVoijqNU1G7YWupf3fknwIGadBksD8+oZ1sfuo7c6WvsNCQPq7HdOXqNTRN6YQa8S2EFsumLTrh6q/XpF/H6bw16zfhzrhGqJ/QTgCjOhspjFdHjJcDbtCsvWhX156PY/Lbc7Dho0+w9fMdWPL+KowcOxkPPPQk/npPPB7uN1B4IlC6jkmsWHFToHISvSXLz/+xE0/2H4wtW/+BX6/lFluADdzkhMkzxATEJ7QVSXtl+DgZSxrXruUioWWaqHOle5vi0SdfkD4yL2uZqq/g00xQnVlWqpGAXXv2m+OMQ1AJHzpygoBK9W/SopNlg09l/ksOpm7jVDnMF14eKTyWxDzX/3LXXmz/YlcRnkoaq22cw1QmSdXJJZW0OfZwSiWaHjS1Yy+xnVS11E694PcXCBik8/ygEWLLCEDjpA4WAARWJW/m3MViJuo1bYPWHXqiTqNU+Z4xZ5HQ4Tg9iIKCAnTo9rCoP83Qcy8Ot9j9+NPPQTtPk8RDyfjue5nv9/slHCQYEhZGGdFYhM3KTYHKSTqRJZlg1nZnWWg6kSEj3hApFeCSOyLn0mVrzvoPt6Bi1UayUTo1Oj/S4QGRNtOzLwwREJNSu2H5qvViC2kH2c6kfLBOx1K9nmEmKsY1FrVWvqjitMvxTduK3f9q39cyn6Dy8HWclna62iYTrvOHY5g4r8zeXxdgSQlRD+1ci2ESwXln9kLZTK2GrVC/WTsJoXRs9oUcaWNfxaoNMXHKTNmcIelhuD1epLR7QObTzl25+iuatewsToVRhcfrFVLq/BjWkY6udeHiJV0K3x4+iiq1moljZLTSvff/SdhlDZAYk4JSHGD7mOvVbwpUBZNEWVdJ0kUYEjEmdLk9ouLavnTFB+LdaQvpIBg/6nyWvR8fIGEMN9zr0WdkmhFlAN8dOYYa8cliIxktMPV+7DnQBtOcqOMrMB3owMEjRAoZFtlDKR4+TUPnvxnOk86R3p42d8r0uTj8/XERAOXZzh/b+H2jpGPKJKk6iSWZZPrp5GlMmDID9z/YDy3aPSCZEtQ27SE89vSLmPbOPIkZuUmqv4LKuZRk0np38XJLutSusp159doPxYMzBl638WNpGz9puhFXVm+CVR98KG3cCG1127QHxZlRzdOXrZE+2lwVgIxvv0e1uskSQhFY8sRIgQfU6YFHMeXtOeAYTWqr+U1+SkvaXyZQhbB5z2edcSfDG26A6kTm/lq5Pv5SKV7yf1esjT/fVUc2QCnlWDuo3CzT0WM/Iq5OooRLtJWMLDQNGjra8uT/PH5CNkaPzEPi2JeHjdWhOHz0OOIYnzZsJWv9+FOm9HGT3LACu+/rDLTr/JDYcoZ0HM9YmcAyBq5aO1GEREMxNQckpsBZi9oq2hc1qJxgZ4yel4ARLN50mBmQvzRktIRRL746CrwxpXV/VGwmJUJuRKb6kxfdLCW24/2PiATxgCZNmy1r0YHQk/Ow2nfpjfx8v2zhwsUcNEy8Tw7rvq59wHHkLX3ZajlgHhDtbzAURMimVbomS86hk+z37CA0Se5o3aa4n3pN2ohp4MXk3SXLZU3lVYGTRscf7YsaVM5XwseOn5CgnwxUj28hjmPvgUOOJYxP2sbpMxcIMOI8EiKOynByhrSOf3O6jOHtjDceph9OnEJtOrC4Rhg0ZLS0GbY2LGMoZeThx59OCai8/dDWMmyic2TSCIQbjmzaMF0yAJBoZPMnn4FxK+NphmIEloJAehp6cf+lpQj9KL0/J5BBJtrQClUayE2IKvjpti+knRuWpzQz1KKNY5ozP11uTASAtxw+oDCRSb1M7Nl/SFSaG+FV1JuXh48+3mbYzmqN5aZDHlRaGSXIfb16E2zc9KkAxpCLKkybeeToD9JmB4LzdeMs2ae+QRgCcObsObmaVq6ZIADzQAcPM66514tydK7SJt2oQiplgiUfKwgmAeCjRM6lKxKG8ALAxDHMBJlJ41RKqt2mhqievD0hLKFRcptulo0+cPAbvDVzgdho2uJvDxvXW3pw0mYgT0ll+ETncur0v0AgqPq0l35znNPR6LfyyDIUMgBWoSHfrTv0AN8uaLt7PvKMrMlxzkOQDZp/SIspalBJjAabqf/fh4qKEFSGJHz6I6D6kkPiGjfm+/1o2b67PKoQVObM02eESR1PaWWiHSZQlMBxk6ZL9EDH17L935DnM54PVfJ+OXdeNIWS1K//YMxftFTUnofNuUxqKuTD9oc0mAlSUXAZdhlvG32eGCA2mw8rEVAj76s2cla1zKBygor/S0NGif3jtZHXvT37DgphbsJ5ksNHTUKlexOMR5VGrYTR/V9nyGZIj0ntHtWdTomHlZCSJlpASbTfnOyS1q3XE6IxHMtQihLNQ+Gd3eA38izIdXhxYHYmBRYwJC3n8hURFvJB+8zDttNzztdvjmGKWlI5WNWZb5uUINpHhh/ckNgwkymPNw+79x4QSSNTPG0yyIcMStaIMZNlcT0kPYhzWRfkCqnRBG0wnxcXpa+QTelbgPIxZsJbov4cR0BpT/lixssHN6gHoBI7ZsI00RQ+ovMx5tLlqzJOmDHfWcl3lx6PCc+8zvKQ2ab7V+B0jr3UvqhBVSapMnyTbNOpF/h+ymsn30trN2olsd2DfZ+VPm7w9rvqirFngM6rJTdO9WdfxFkZV0IFtu9Tf5dwhnTpiRn/7t1vRBYq2QrSpi2fiaRyLG01vfbgoUbcaj8wjYdfHj4O/1WhlgDGKCMhpTO69nxC1JsqTuGgkNDR0fv/z511MGKMcYsjUAqaHUh7XfvLBConcQITA3EC9b/3xAuoNeqniGpTMhnfMYimw6CqMzECuK1CTVGnAS+9hlyXWyRJpUmlMH3pavzn7dUEID4k12/WXp4W9VCVB5aZP5+RA6DWcN3b7qgpP4+wT4G3j9+x8yt50eftjGaC11Q+TjNsYibQPHDadPaNGj9VfAN51EMnvesl7YsaVDshXeBiziUJrxig88pHG5vYuqvcufmwob9NcYOcM33Wu/hg/SaLFKVeE/vJlNvjwVsz5uP1cVMw7PWJ2LbduF1pP8dznH6v3bAZw0dNFJMyb+H71kVAN6jj9ZuRCnl79oWhcpWmNvARnZn8UxAYrTA2dc5VGtJRwh/tLxOonKQHxU1pIhH+UPbLuaxiD9b2K56ON+gYgNrr2u8slVln+42+nbTtPHMub1U0Q4xGGJLxR0X1/uzX6IR1J62S1lY+ywSqkziZ1HDIvoi26yI6j3aOCyqDzn5tp2RrLmm8jmPJfh2rdlT7lSf9Zqm8aXioY+wlaaow6Fzpp0SpVNknmHWOZeL8qIJ/Jw1dTEsyK9kM/LVdS8531p00Y/2t69tLi2/yzwMPBYplhAIwctAAVcF1AEy6TDcGVSeGQ0CodKKxBuWW0S8CCqUvaOztNy4QPahcSIFlXYA17WkR5n4jR7/ndPt+CKiZQt4LKDyzDf7Ds+HbMwx5Xw6U7NszFP7DcxA4vxsIFQIUMDsNc370oJIARfryEQSy9pvTCW7AIM6A/48IrvBs7C1wMQN52/vD9V4Kcuc2R+5sM89tDteCRCuzz39ssbFfATcSvRCYqEENB3kyYRScWCGL5e0YiODVHx3g/sHMAgEVoQgjP2MKXPOaw/VuItxLU+BZ1wGej+6HZ1N3eNbeB9d7yXAtTpI+1/xE+PaPlL2Hg7SzkQioTKCKFFLlGYIcf09O0rU4Gb69IxG8dlLa5Y/YJUrvH0By7VKa9RUCWfsQ8mQhlHcR4cI8cw9AuMCD4JXj8G7uCdeiJJHY/Iw3jX5K6k2DSsTkZA1gA+d2wr2sFXJnNoN7aUv4dr+C4OXIbzoCsEjBH0B6ua/SkgrTscWWCfAfTxc8VIPt06NWfwGUMxkq0RTQnLp+hnfLw4ba0OakJ8O79TEUnt6McKHxk7G1mIQjJQB8ow1ZBG5RRaTTpkUEzPILxhrh/GsoOLUB3i2Pw390vuEzQkHkH5wAqj7NQODiN8ZgznWk6EHlRAGADJkOStqCyP96AmgKaI9cCw2D7l5zH3wHxhmLOxe2NkKQTQ/q3KyD0TJ/OunJN9cyQTSlT+lSUAIXDsG373W4V7UTicx9OwF5Xxg/6XCc99NHxOx51ndCOFhg4KH8K6GyOCprjgLLBjJoRgWB7H3wbOhmqMeSJDlN8ZiLkuBZ3wX5ByeBY8RWWcTMCmmIJNPolwJ0iUDZpK5IvxlPK12TT/vS5CWQtUeEwrO+c4Rnat3CRPj2jrBsK8Ms9/JWAqrvgPECVpLqCyyCUTTBfxFuzI0YFAxABGO/xHa0tQIoPSYzpZdqszAR7jXtkbf9GdAmBXK+Rdhv/Is9O/kidQFcpYug0zE4sx5GJNYsQsP8CPtdCF46LI6WPLjXtLM0iyoteUEiPBu6ovAX4/c2vegUZG6UPbjfT0HwWqYhpSLtxe1x2dTfyalKBttFwowBIc95+PYMhyu9hSW5DFMEYNN7qhS7V7SGd0tv+PaPMoDO3oeQ+yzCBW5LC5zL3uib3jrkzUbg4iEU/LAMvv1j4f2kD9wrUy3gZH2GSO+3gIuatSAR7uWpIhThoPETuBEuGTYzb0d/5M5oBpVSDcUsX2Nj6reBSkJ2YFm32U+GWryR8HRVUgksNyKbSTdiP9kgJdlUOx4AwfZs7CKAe7f2hW/3INlQ/qFJYDiTnzEZUj/4hnHr+bwfvFv6SGzpXtUG7mUtrfBH1iZtHijX1wOmDyCYK9si/5u3EPKZ/95KfAa1w5D8kO8yXIuSQT9BaZd2sy82oOoJFQHXtJFmX8h1BvnfTIdnbZrhzHSD6TaA1VQQaLXJptMTsDmHwJeU2aeZQBE8qjNpOQ9RTdHiJIk7C35YjnC+7fcqCoW5F7WZPDzXwmQErxw1diRaaTOBioFZ/nZJtRNUYFnKtbUouPSYhWd3IG/nILhXtjEAJkgEgkAqsDdZqgaIFpBGelJEWgn64iR41qVJaETbWiQJmI63DBO8gpNrEMjREIqO1EKvCAn9uLWgRqhap22celFwOSzsz0Xg3C74DowXiRGVJLhqBlinVFHiCDgzQXJm7aN0qmQrjUVJcK9IhXfr4/AfmSNOSmNsYZWHb4HpiCJ0L/bSiiCuL6WyNxGqsnp/+0I3qtulVzYRsVX2qXRu9Lj+owvh2/0yvJt7wLOuI9zLW8L1XgtDldVDa2lKt0joylR4NnSB2N8DY1FwYjUCFzLk8OzrSF2ApMSVAqT2cYJIrGN8MaKRBr7NMvHR/OTJk9H/l58IiTLUlFEpbXEkv0tKoUKE8nIkGgj+elIkjWGYZl6LQ7mZCLnPGaHZdchYAb/E1aUAWRIPN9FmV//MzMwYg2pnsAjA3KhpIihFlkraJ0RZlxsT41iNXUu4sUVJ6maHKags+fpfpv+berOLljivGMgqUQTFvF4KYKb5sFRS+0sA73oaUCIDsWv894Eauz397pTtksp6OagxOIJyUMtBjQECMSBZLqnloMYAgRiQ/H9IcmzxK84bowAAAABJRU5ErkJggg==;" vertex="1" parent="1">
                    <mxGeometry x="108" y="573" width="85" height="63" as="geometry"/>
                </mxCell>
                <mxCell id="31" value="" style="shape=image;verticalLabelPosition=bottom;labelBackgroundColor=#ffffff;verticalAlign=top;aspect=fixed;imageAspect=0;image=data:image/png,iVBORw0KGgoAAAANSUhEUgAAAEMAAAA9CAYAAAD24tTCAAAD10lEQVR4Ae2aaU8TQRjH+Wq+8p2fgBhjYjRGjWKMxjceMRp94REDAUIAgYBKQzwol1RFkCoiBXqwPSjdUj7HmP82Txn2oDO7w7LUeTF5Zts5f/McM7Pbtre3x3SqM2jTIPaVQcPgLEPD0DD2TYN3E1oztGZozWi6hYiEmXxOltm1wawjJTNm0wnwNh80HwkY44vb7NTjlCMtbWgYDSgaBqchGsb/DqNUqbFPybIjBXWIsvWVO9DhRIndGc0dSDeHc2zHrLHbozl2uT9zIL2OF9j0ys6B8lR/NXfCHeireL7hAPkIUTZrrr8DjqpokjKqgUKxcs04Lhjx3zsW7IcxwzeQloFxf9xoaB60TdZfoHxLwMiWdhsgyDRHvpakgSiHgb3B24VtRwJ5OEt7mvhZZtnirqM82hBdXbRJEHi5uiXngH3DsE8Kz4m/FSu5/ecFA5NGvQcxw5HW81ULkld7BOvJxL6J8DB6Z4vCQNGWbxh8p5SnQdMzL9EZ/0z5ZtEE/1NZknafcHdsy1EGZS/2ZRoLBI3FfoYAusmWgIETL4FqJts7N9m99wZD9LEDaQkY/V+KwjAIVnvXZmvCWMma0jDivxRqBvkHXmJQSPxvlIdKUp6XiCZrhsmwuvZkVmsM//PlKc+rOBzwrZGcMBAcC/j6lBc2E3RIA4mKxKTOPF8XhgATOduVdgUBIEIwfqzLqyHZZlQkfETXdMEThDCMzin3TU1UJuo2jkt9GdY9U2CxpW3LdMkUDpNCmjEwL++t3QYY5m9uDvIwENB+IRjYJYY5kaB9ne/x9gteQLBxE4Lxcbl8omDIHtJm/9SP/0Iw5lbrhYOuWBj1/WgFzjAYmxAMr1uqMCYn28c7idMumQy258IwUOnqgPj+X3YCqso/8nnL1TFU37AJaQZg9MxEO7ye606zfHn30H0EaYJdvpis39sKw/iWqkTaicqGUh4IRUthGKh8odd5t6BKxYO083Iy70sjCMjypslOPxV0oFQpthS9EOt16KIxi0qct6Q0Aw3LnA6DrLZIXVUgCJg0jMRaNHyHahAAIg0DlaBSIit3VGXQP62mSukLxnEBwUUw7lVUAuDb8g0jTCA4jo99F3+Pwk9QJh8IBjpCjL4xdDS70+tvsta1n8yEgpQNDIM6X9wwrZukKwG37R3DOTY4X2TJtNzbMBpHEKkMhn0Q6UKVLaQq1sr2zRXZsw+G9X0G3nHg7gBvweAIBxMl6zYKx2h8w2FvJ8znI4MR5iRU9aVh6M+l9efSTf2RNhNtJtpMtJnIhF3tM7TP0D5D+wztMzg/oGH4hPEPFjEV6lPHjAUAAAAASUVORK5CYII=;" vertex="1" parent="1">
                    <mxGeometry x="138.08" y="220" width="54.92" height="50" as="geometry"/>
                </mxCell>
                <mxCell id="32" value="" style="shape=image;verticalLabelPosition=bottom;labelBackgroundColor=#ffffff;verticalAlign=top;aspect=fixed;imageAspect=0;image=data:image/png,iVBORw0KGgoAAAANSUhEUgAAAEMAAAA9CAYAAAD24tTCAAAD10lEQVR4Ae2aaU8TQRjH+Wq+8p2fgBhjYjRGjWKMxjceMRp94REDAUIAgYBKQzwol1RFkCoiBXqwPSjdUj7HmP82Txn2oDO7w7LUeTF5Zts5f/McM7Pbtre3x3SqM2jTIPaVQcPgLEPD0DD2TYN3E1oztGZozWi6hYiEmXxOltm1wawjJTNm0wnwNh80HwkY44vb7NTjlCMtbWgYDSgaBqchGsb/DqNUqbFPybIjBXWIsvWVO9DhRIndGc0dSDeHc2zHrLHbozl2uT9zIL2OF9j0ys6B8lR/NXfCHeireL7hAPkIUTZrrr8DjqpokjKqgUKxcs04Lhjx3zsW7IcxwzeQloFxf9xoaB60TdZfoHxLwMiWdhsgyDRHvpakgSiHgb3B24VtRwJ5OEt7mvhZZtnirqM82hBdXbRJEHi5uiXngH3DsE8Kz4m/FSu5/ecFA5NGvQcxw5HW81ULkld7BOvJxL6J8DB6Z4vCQNGWbxh8p5SnQdMzL9EZ/0z5ZtEE/1NZknafcHdsy1EGZS/2ZRoLBI3FfoYAusmWgIETL4FqJts7N9m99wZD9LEDaQkY/V+KwjAIVnvXZmvCWMma0jDivxRqBvkHXmJQSPxvlIdKUp6XiCZrhsmwuvZkVmsM//PlKc+rOBzwrZGcMBAcC/j6lBc2E3RIA4mKxKTOPF8XhgATOduVdgUBIEIwfqzLqyHZZlQkfETXdMEThDCMzin3TU1UJuo2jkt9GdY9U2CxpW3LdMkUDpNCmjEwL++t3QYY5m9uDvIwENB+IRjYJYY5kaB9ne/x9gteQLBxE4Lxcbl8omDIHtJm/9SP/0Iw5lbrhYOuWBj1/WgFzjAYmxAMr1uqMCYn28c7idMumQy258IwUOnqgPj+X3YCqso/8nnL1TFU37AJaQZg9MxEO7ye606zfHn30H0EaYJdvpis39sKw/iWqkTaicqGUh4IRUthGKh8odd5t6BKxYO083Iy70sjCMjypslOPxV0oFQpthS9EOt16KIxi0qct6Q0Aw3LnA6DrLZIXVUgCJg0jMRaNHyHahAAIg0DlaBSIit3VGXQP62mSukLxnEBwUUw7lVUAuDb8g0jTCA4jo99F3+Pwk9QJh8IBjpCjL4xdDS70+tvsta1n8yEgpQNDIM6X9wwrZukKwG37R3DOTY4X2TJtNzbMBpHEKkMhn0Q6UKVLaQq1sr2zRXZsw+G9X0G3nHg7gBvweAIBxMl6zYKx2h8w2FvJ8znI4MR5iRU9aVh6M+l9efSTf2RNhNtJtpMtJnIhF3tM7TP0D5D+wztMzg/oGH4hPEPFjEV6lPHjAUAAAAASUVORK5CYII=;" vertex="1" parent="1">
                    <mxGeometry x="141.38" y="415" width="51.62" height="47" as="geometry"/>
                </mxCell>
                <mxCell id="34" value="" style="rounded=0;whiteSpace=wrap;html=1;labelBackgroundColor=none;fontSize=14;fontColor=#000000;fillColor=none;" vertex="1" parent="1">
                    <mxGeometry x="25" y="35" width="843" height="790" as="geometry"/>
                </mxCell>
            </root>
        </mxGraphModel>
    </diagram>
</mxfile>